<?xml version="1.0" encoding="UTF-8" standalone="no"?>
<!DOCTYPE svg PUBLIC "-//W3C//DTD SVG 1.1//EN"
 "http://www.w3.org/Graphics/SVG/1.1/DTD/svg11.dtd">
<!-- Generated by graphviz version 14.1.5 (20260411.2331)
 -->
<!-- Title: G Pages: 1 -->
<svg width="259pt" height="420pt"
 viewBox="0.00 0.00 259.00 420.00" xmlns="http://www.w3.org/2000/svg" xmlns:xlink="http://www.w3.org/1999/xlink">
<g id="graph0" class="graph" transform="scale(1 1) rotate(0) translate(4 416.27)">
<title>G</title><style>.edge>path:hover{stroke-width:8}</style>
<polygon fill="white" stroke="none" points="-4,4 -4,-416.27 255,-416.27 255,4 -4,4"/>
<!-- faker -->
<g id="node1" class="node">
<title>faker</title><style>.edge>path:hover{stroke-width:8}</style>
<ellipse fill="#c04040" stroke="black" cx="143" cy="-394.27" rx="27" ry="18"/>
<text xml:space="preserve" text-anchor="middle" x="143" y="-390.39" font-family="Helvetica,sans-Serif" font-size="10.00" fill="#ffffff">faker</text>
</g>
<!-- logic_gen_students -->
<g id="node5" class="node">
<title>logic_gen_students</title><style>.edge>path:hover{stroke-width:8}</style>
<ellipse fill="#7ac431" stroke="black" cx="143" cy="-281.7" rx="52.68" ry="21.57"/>
<text xml:space="preserve" text-anchor="middle" x="143" y="-283.45" font-family="Helvetica,sans-Serif" font-size="10.00" fill="#000000">logic.</text>
<text xml:space="preserve" text-anchor="middle" x="143" y="-272.2" font-family="Helvetica,sans-Serif" font-size="10.00" fill="#000000">gen_students</text>
</g>
<!-- faker&#45;&gt;logic_gen_students -->
<g id="edge1" class="edge">
<title>faker&#45;&gt;logic_gen_students</title><style>.edge>path:hover{stroke-width:8}</style>
<path fill="none" stroke="black" d="M143,-375.99C143,-359.72 143,-334.93 143,-315"/>
<polygon fill="#c04040" stroke="black" points="146.5,-315.14 143,-305.14 139.5,-315.14 146.5,-315.14"/>
</g>
<!-- logic -->
<g id="node2" class="node">
<title>logic</title><style>.edge>path:hover{stroke-width:8}</style>
<ellipse fill="#85ce3b" stroke="black" cx="27" cy="-130.57" rx="27" ry="18"/>
<text xml:space="preserve" text-anchor="middle" x="27" y="-126.69" font-family="Helvetica,sans-Serif" font-size="10.00" fill="#000000">logic</text>
</g>
<!-- main_py -->
<g id="node6" class="node">
<title>main_py</title><style>.edge>path:hover{stroke-width:8}</style>
<ellipse fill="#4b8b8b" stroke="black" cx="117" cy="-18" rx="29.88" ry="18"/>
<text xml:space="preserve" text-anchor="middle" x="117" y="-14.12" font-family="Helvetica,sans-Serif" font-size="10.00" fill="#ffffff">main.py</text>
</g>
<!-- logic&#45;&gt;main_py -->
<g id="edge2" class="edge">
<title>logic&#45;&gt;main_py</title><style>.edge>path:hover{stroke-width:8}</style>
<path fill="none" stroke="black" d="M117,-72C116.69,-64.06 116.59,-55.45 116.6,-47.52"/>
<polygon fill="#85ce3b" stroke="black" points="120.09,-47.73 116.65,-37.71 113.09,-47.68 120.09,-47.73"/>
<path fill="none" stroke="black" d="M47.97,-118.82C74.66,-104.81 117.31,-81.11 117,-73"/>
</g>
<!-- logic_calc_stats -->
<g id="node3" class="node">
<title>logic_calc_stats</title><style>.edge>path:hover{stroke-width:8}</style>
<ellipse fill="#709d43" stroke="black" cx="153" cy="-130.57" rx="43.13" ry="21.57"/>
<text xml:space="preserve" text-anchor="middle" x="153" y="-132.32" font-family="Helvetica,sans-Serif" font-size="10.00" fill="#000000">logic.</text>
<text xml:space="preserve" text-anchor="middle" x="153" y="-121.07" font-family="Helvetica,sans-Serif" font-size="10.00" fill="#000000">calc_stats</text>
</g>
<!-- logic_calc_stats&#45;&gt;main_py -->
<g id="edge3" class="edge">
<title>logic_calc_stats&#45;&gt;main_py</title><style>.edge>path:hover{stroke-width:8}</style>
<path fill="none" stroke="black" d="M133.98,-110.71C125.62,-100.48 117.54,-87.07 117,-73"/>
</g>
<!-- logic_ETL -->
<g id="node4" class="node">
<title>logic_ETL</title><style>.edge>path:hover{stroke-width:8}</style>
<ellipse fill="#75b03a" stroke="black" cx="144" cy="-206.13" rx="33.87" ry="18"/>
<text xml:space="preserve" text-anchor="middle" x="144" y="-202.26" font-family="Helvetica,sans-Serif" font-size="10.00" fill="#000000">logic.ETL</text>
</g>
<!-- logic_ETL&#45;&gt;logic_calc_stats -->
<g id="edge4" class="edge">
<title>logic_ETL&#45;&gt;logic_calc_stats</title><style>.edge>path:hover{stroke-width:8}</style>
<path fill="none" stroke="black" d="M146.13,-187.7C147.01,-180.54 148.05,-172.01 149.06,-163.79"/>
<polygon fill="#75b03a" stroke="black" points="152.51,-164.4 150.25,-154.05 145.56,-163.55 152.51,-164.4"/>
</g>
<!-- logic_ETL&#45;&gt;main_py -->
<g id="edge5" class="edge">
<title>logic_ETL&#45;&gt;main_py</title><style>.edge>path:hover{stroke-width:8}</style>
<path fill="none" stroke="black" d="M122.1,-192.12C103.47,-179.18 80.01,-157.55 82,-131.57"/>
</g>
<!-- logic_gen_students&#45;&gt;logic_calc_stats -->
<g id="edge6" class="edge">
<title>logic_gen_students&#45;&gt;logic_calc_stats</title><style>.edge>path:hover{stroke-width:8}</style>
<path fill="none" stroke="black" d="M82,-205.13C79.36,-183.22 96.03,-165.24 113.88,-152.54"/>
<polygon fill="#7ac431" stroke="black" points="115.53,-155.65 121.96,-147.22 111.68,-149.8 115.53,-155.65"/>
</g>
<!-- logic_gen_students&#45;&gt;logic_ETL -->
<g id="edge7" class="edge">
<title>logic_gen_students&#45;&gt;logic_ETL</title><style>.edge>path:hover{stroke-width:8}</style>
<path fill="none" stroke="black" d="M143.28,-259.82C143.39,-252.37 143.5,-243.84 143.61,-235.85"/>
<polygon fill="#7ac431" stroke="black" points="147.11,-235.91 143.75,-225.86 140.11,-235.81 147.11,-235.91"/>
</g>
<!-- logic_gen_students&#45;&gt;main_py -->
<g id="edge8" class="edge">
<title>logic_gen_students&#45;&gt;main_py</title><style>.edge>path:hover{stroke-width:8}</style>
<path fill="none" stroke="black" d="M82,-205.13C78.09,-172.67 79.5,-164.17 82,-131.57"/>
<path fill="none" stroke="black" d="M117.48,-262.42C102,-249.18 84.72,-229.7 82,-207.13"/>
<path fill="none" stroke="black" d="M82,-129.57C84.26,-100.09 118.14,-102.54 117,-73"/>
</g>
<!-- state -->
<g id="node7" class="node">
<title>state</title><style>.edge>path:hover{stroke-width:8}</style>
<ellipse fill="#852fdb" stroke="black" cx="224" cy="-394.27" rx="27" ry="18"/>
<text xml:space="preserve" text-anchor="middle" x="224" y="-390.39" font-family="Helvetica,sans-Serif" font-size="10.00" fill="#ffffff">state</text>
</g>
<!-- state&#45;&gt;logic_calc_stats -->
<g id="edge9" class="edge">
<title>state&#45;&gt;logic_calc_stats</title><style>.edge>path:hover{stroke-width:8}</style>
<path fill="none" stroke="black" d="M224,-205.13C219.41,-184.57 203.81,-167.26 188.4,-154.61"/>
<polygon fill="#852fdb" stroke="black" points="190.69,-151.95 180.63,-148.63 186.42,-157.5 190.69,-151.95"/>
<path fill="none" stroke="black" d="M224,-280.7C216.12,-248.97 231.12,-239.04 224,-207.13"/>
</g>
<!-- state&#45;&gt;logic_ETL -->
<g id="edge10" class="edge">
<title>state&#45;&gt;logic_ETL</title><style>.edge>path:hover{stroke-width:8}</style>
<path fill="none" stroke="black" d="M224,-339.27C216.46,-315.28 230.06,-307.1 224,-282.7"/>
<path fill="none" stroke="black" d="M224,-280.7C218,-256.53 196.92,-237.73 177.9,-225.18"/>
<polygon fill="#852fdb" stroke="black" points="179.87,-222.28 169.53,-219.99 176.19,-228.23 179.87,-222.28"/>
</g>
<!-- state&#45;&gt;logic_gen_students -->
<g id="edge11" class="edge">
<title>state&#45;&gt;logic_gen_students</title><style>.edge>path:hover{stroke-width:8}</style>
<path fill="none" stroke="black" d="M224,-339.27C218.94,-323.18 205.83,-311.11 191.58,-302.34"/>
<polygon fill="#852fdb" stroke="black" points="193.39,-299.34 182.95,-297.52 189.98,-305.45 193.39,-299.34"/>
<path fill="none" stroke="black" d="M226.56,-376.16C227.53,-365.58 227.64,-351.85 224,-340.27"/>
</g>
<!-- state&#45;&gt;main_py -->
<g id="edge12" class="edge">
<title>state&#45;&gt;main_py</title><style>.edge>path:hover{stroke-width:8}</style>
<path fill="none" stroke="black" d="M224,-205.13C214.51,-162.63 232.68,-142.62 205,-109 178.14,-76.38 118.63,-115.23 117,-73"/>
</g>
</g>
</svg>
