<?xml version="1.0" encoding="UTF-8" standalone="no"?>
<!DOCTYPE svg PUBLIC "-//W3C//DTD SVG 1.1//EN"
 "http://www.w3.org/Graphics/SVG/1.1/DTD/svg11.dtd">
<!-- Generated by graphviz version 14.1.5 (20260411.2331)
 -->
<!-- Title: G Pages: 1 -->
<svg width="328pt" height="753pt"
 viewBox="0.00 0.00 328.00 753.00" xmlns="http://www.w3.org/2000/svg" xmlns:xlink="http://www.w3.org/1999/xlink">
<g id="graph0" class="graph" transform="scale(1 1) rotate(0) translate(4 748.97)">
<title>G</title><style>.edge>path:hover{stroke-width:8}</style>
<polygon fill="white" stroke="none" points="-4,4 -4,-748.97 323.82,-748.97 323.82,4 -4,4"/>
<!-- faker -->
<g id="node1" class="node">
<title>faker</title><style>.edge>path:hover{stroke-width:8}</style>
<polygon fill="blue" stroke="black" points="220.32,-205.04 166.32,-205.04 166.32,-169.04 220.32,-169.04 220.32,-205.04"/>
<text xml:space="preserve" text-anchor="middle" x="193.32" y="-183.17" font-family="Helvetica,sans-Serif" font-size="10.00" fill="white">faker</text>
</g>
<!-- student_pipeline_GIT_logic_gen_students -->
<g id="node12" class="node">
<title>student_pipeline_GIT_logic_gen_students</title><style>.edge>path:hover{stroke-width:8}</style>
<ellipse fill="#4cb3b3" stroke="black" cx="193.32" cy="-29.52" rx="77.6" ry="29.52"/>
<text xml:space="preserve" text-anchor="middle" x="193.32" y="-36.9" font-family="Helvetica,sans-Serif" font-size="10.00" fill="#000000">student_pipeline_GIT.</text>
<text xml:space="preserve" text-anchor="middle" x="193.32" y="-25.65" font-family="Helvetica,sans-Serif" font-size="10.00" fill="#000000">logic.</text>
<text xml:space="preserve" text-anchor="middle" x="193.32" y="-14.4" font-family="Helvetica,sans-Serif" font-size="10.00" fill="#000000">gen_students</text>
</g>
<!-- faker&#45;&gt;student_pipeline_GIT_logic_gen_students -->
<g id="edge1" class="edge">
<title>faker&#45;&gt;student_pipeline_GIT_logic_gen_students</title><style>.edge>path:hover{stroke-width:8}</style>
<path fill="none" stroke="black" d="M193.32,-168.81C193.32,-145.28 193.32,-102.41 193.32,-70.62"/>
<polygon fill="blue" stroke="black" points="196.82,-70.98 193.32,-60.98 189.82,-70.98 196.82,-70.98"/>
</g>
<!-- faker_config -->
<g id="node2" class="node">
<title>faker_config</title><style>.edge>path:hover{stroke-width:8}</style>
<ellipse fill="#b83d3d" stroke="black" cx="139.32" cy="-559.93" rx="39.2" ry="18"/>
<text xml:space="preserve" text-anchor="middle" x="139.32" y="-556.05" font-family="Helvetica,sans-Serif" font-size="10.00" fill="#ffffff">faker.config</text>
</g>
<!-- faker_factory -->
<g id="node4" class="node">
<title>faker_factory</title><style>.edge>path:hover{stroke-width:8}</style>
<polygon fill="blue" stroke="black" points="107.32,-505.93 37.32,-505.93 37.32,-469.93 107.32,-469.93 107.32,-505.93"/>
<text xml:space="preserve" text-anchor="middle" x="72.32" y="-484.05" font-family="Helvetica,sans-Serif" font-size="10.00" fill="white">faker.factory</text>
</g>
<!-- faker_config&#45;&gt;faker_factory -->
<g id="edge2" class="edge">
<title>faker_config&#45;&gt;faker_factory</title><style>.edge>path:hover{stroke-width:8}</style>
<path fill="none" stroke="black" d="M124.12,-543.04C115.99,-534.56 105.8,-523.91 96.61,-514.31"/>
<polygon fill="#b83d3d" stroke="black" points="99.36,-512.12 89.92,-507.31 94.3,-516.96 99.36,-512.12"/>
</g>
<!-- faker_proxy -->
<g id="node7" class="node">
<title>faker_proxy</title><style>.edge>path:hover{stroke-width:8}</style>
<polygon fill="blue" stroke="black" points="225.32,-277.04 161.32,-277.04 161.32,-241.04 225.32,-241.04 225.32,-277.04"/>
<text xml:space="preserve" text-anchor="middle" x="193.32" y="-255.17" font-family="Helvetica,sans-Serif" font-size="10.00" fill="white">faker.proxy</text>
</g>
<!-- faker_config&#45;&gt;faker_proxy -->
<g id="edge3" class="edge">
<title>faker_config&#45;&gt;faker_proxy</title><style>.edge>path:hover{stroke-width:8}</style>
<path fill="none" stroke="black" d="M139.87,-541.44C141.26,-510.57 146.18,-444.73 163.32,-392.18 172.14,-365.12 185.73,-363.04 193.32,-335.61"/>
</g>
<!-- faker_exceptions -->
<g id="node3" class="node">
<title>faker_exceptions</title><style>.edge>path:hover{stroke-width:8}</style>
<ellipse fill="#b65353" stroke="black" cx="120.32" cy="-334.61" rx="44.72" ry="21.57"/>
<text xml:space="preserve" text-anchor="middle" x="120.32" y="-336.36" font-family="Helvetica,sans-Serif" font-size="10.00" fill="#ffffff">faker.</text>
<text xml:space="preserve" text-anchor="middle" x="120.32" y="-325.11" font-family="Helvetica,sans-Serif" font-size="10.00" fill="#ffffff">exceptions</text>
</g>
<!-- faker_exceptions&#45;&gt;faker_proxy -->
<g id="edge4" class="edge">
<title>faker_exceptions&#45;&gt;faker_proxy</title><style>.edge>path:hover{stroke-width:8}</style>
<path fill="none" stroke="black" d="M139.12,-314.66C147.94,-305.77 158.58,-295.05 168.09,-285.47"/>
<polygon fill="#b65353" stroke="black" points="170.46,-288.05 175.02,-278.49 165.49,-283.12 170.46,-288.05"/>
</g>
<!-- faker_factory&#45;&gt;faker -->
<g id="edge5" class="edge">
<title>faker_factory&#45;&gt;faker</title><style>.edge>path:hover{stroke-width:8}</style>
<path fill="none" stroke="black" d="M75.98,-469.69C79.28,-454.82 84.49,-432.85 90.32,-414.05"/>
<path fill="none" stroke="black" d="M90.32,-412.05C98.32,-386.24 71.76,-382.65 66.32,-356.18 62.46,-337.4 58.91,-330.73 66.32,-313.04 84.57,-269.47 126.24,-233.4 156.89,-211.39"/>
<polygon fill="blue" stroke="black" points="158.58,-214.48 164.77,-205.89 154.57,-208.74 158.58,-214.48"/>
</g>
<!-- faker_factory&#45;&gt;faker_proxy -->
<g id="edge6" class="edge">
<title>faker_factory&#45;&gt;faker_proxy</title><style>.edge>path:hover{stroke-width:8}</style>
<path fill="none" stroke="black" d="M193.32,-333.61C197.32,-319.14 197.65,-302.44 196.83,-288.62"/>
<polygon fill="blue" stroke="black" points="200.33,-288.52 196.01,-278.85 193.36,-289.11 200.33,-288.52"/>
<path fill="none" stroke="black" d="M90.32,-412.05C107.2,-357.6 178.12,-390.55 193.32,-335.61"/>
</g>
<!-- faker_generator -->
<g id="node5" class="node">
<title>faker_generator</title><style>.edge>path:hover{stroke-width:8}</style>
<polygon fill="blue" stroke="black" points="290.57,-577.93 234.07,-577.93 234.07,-541.93 290.57,-541.93 290.57,-577.93"/>
<text xml:space="preserve" text-anchor="middle" x="262.32" y="-561.68" font-family="Helvetica,sans-Serif" font-size="10.00" fill="white">faker.</text>
<text xml:space="preserve" text-anchor="middle" x="262.32" y="-550.43" font-family="Helvetica,sans-Serif" font-size="10.00" fill="white">generator</text>
</g>
<!-- faker_generator&#45;&gt;faker -->
<g id="edge7" class="edge">
<title>faker_generator&#45;&gt;faker</title><style>.edge>path:hover{stroke-width:8}</style>
<path fill="none" stroke="black" d="M264.32,-333.61C254.68,-291.45 254.52,-279.28 234.32,-241.04 229.34,-231.63 222.69,-222.17 216.18,-213.9"/>
<polygon fill="blue" stroke="black" points="219.01,-211.83 209.96,-206.31 213.59,-216.26 219.01,-211.83"/>
</g>
<!-- faker_generator&#45;&gt;faker_factory -->
<g id="edge8" class="edge">
<title>faker_generator&#45;&gt;faker_factory</title><style>.edge>path:hover{stroke-width:8}</style>
<path fill="none" stroke="black" d="M233.87,-548.45C203.38,-537.21 154.51,-519.21 118.49,-505.94"/>
<polygon fill="blue" stroke="black" points="119.78,-502.68 109.18,-502.51 117.36,-509.25 119.78,-502.68"/>
</g>
<!-- faker_providers -->
<g id="node6" class="node">
<title>faker_providers</title><style>.edge>path:hover{stroke-width:8}</style>
<polygon fill="blue" stroke="black" points="262.19,-649.93 206.44,-649.93 206.44,-613.93 262.19,-613.93 262.19,-649.93"/>
<text xml:space="preserve" text-anchor="middle" x="234.32" y="-633.68" font-family="Helvetica,sans-Serif" font-size="10.00" fill="white">faker.</text>
<text xml:space="preserve" text-anchor="middle" x="234.32" y="-622.43" font-family="Helvetica,sans-Serif" font-size="10.00" fill="white">providers</text>
</g>
<!-- faker_generator&#45;&gt;faker_proxy -->
<g id="edge10" class="edge">
<title>faker_generator&#45;&gt;faker_proxy</title><style>.edge>path:hover{stroke-width:8}</style>
<path fill="none" stroke="black" d="M264.32,-333.61C259.86,-313.63 245,-296.71 230.02,-284.16"/>
<polygon fill="blue" stroke="black" points="232.48,-281.65 222.46,-278.22 228.16,-287.15 232.48,-281.65"/>
<path fill="none" stroke="black" d="M264.32,-486.93C252.5,-420.72 278.97,-401.25 264.32,-335.61"/>
</g>
<!-- faker_utils_distribution -->
<g id="node10" class="node">
<title>faker_utils_distribution</title><style>.edge>path:hover{stroke-width:8}</style>
<polygon fill="blue" stroke="black" points="235.94,-433.93 172.69,-433.93 172.69,-392.18 235.94,-392.18 235.94,-433.93"/>
<text xml:space="preserve" text-anchor="middle" x="204.32" y="-420.43" font-family="Helvetica,sans-Serif" font-size="10.00" fill="white">faker.</text>
<text xml:space="preserve" text-anchor="middle" x="204.32" y="-409.18" font-family="Helvetica,sans-Serif" font-size="10.00" fill="white">utils.</text>
<text xml:space="preserve" text-anchor="middle" x="204.32" y="-397.93" font-family="Helvetica,sans-Serif" font-size="10.00" fill="white">distribution</text>
</g>
<!-- faker_generator&#45;&gt;faker_utils_distribution -->
<g id="edge11" class="edge">
<title>faker_generator&#45;&gt;faker_utils_distribution</title><style>.edge>path:hover{stroke-width:8}</style>
<path fill="none" stroke="black" d="M264.77,-541.52C266.32,-527.27 267.48,-506.64 264.32,-488.93"/>
<path fill="none" stroke="black" d="M264.32,-486.93C261.28,-469.89 250.53,-454.5 238.96,-442.31"/>
<polygon fill="blue" stroke="black" points="241.56,-439.96 231.97,-435.45 236.66,-444.96 241.56,-439.96"/>
</g>
<!-- faker_providers&#45;&gt;faker_generator -->
<g id="edge12" class="edge">
<title>faker_providers&#45;&gt;faker_generator</title><style>.edge>path:hover{stroke-width:8}</style>
<path fill="none" stroke="black" d="M245.48,-603.02C247.38,-598.27 249.35,-593.34 251.25,-588.59"/>
<polygon fill="blue" stroke="black" points="242.27,-601.63 241.8,-612.22 248.77,-604.23 242.27,-601.63"/>
<polygon fill="blue" stroke="black" points="254.45,-590.02 254.91,-579.44 247.95,-587.42 254.45,-590.02"/>
</g>
<!-- faker_proxy&#45;&gt;faker -->
<g id="edge13" class="edge">
<title>faker_proxy&#45;&gt;faker</title><style>.edge>path:hover{stroke-width:8}</style>
<path fill="none" stroke="black" d="M193.32,-240.74C193.32,-233.45 193.32,-224.77 193.32,-216.58"/>
<polygon fill="blue" stroke="black" points="196.82,-216.66 193.32,-206.66 189.82,-216.66 196.82,-216.66"/>
</g>
<!-- faker_typing -->
<g id="node8" class="node">
<title>faker_typing</title><style>.edge>path:hover{stroke-width:8}</style>
<ellipse fill="#ce3b3b" stroke="black" cx="276.32" cy="-715.45" rx="39.2" ry="18"/>
<text xml:space="preserve" text-anchor="middle" x="276.32" y="-711.57" font-family="Helvetica,sans-Serif" font-size="10.00" fill="#ffffff">faker.typing</text>
</g>
<!-- faker_typing&#45;&gt;faker_generator -->
<g id="edge14" class="edge">
<title>faker_typing&#45;&gt;faker_generator</title><style>.edge>path:hover{stroke-width:8}</style>
<path fill="none" stroke="black" d="M318.32,-630.93C319.16,-613.33 308.3,-597.61 295.93,-585.54"/>
<polygon fill="#ce3b3b" stroke="black" points="298.6,-583.24 288.82,-579.17 293.93,-588.45 298.6,-583.24"/>
<path fill="none" stroke="black" d="M290,-698.21C301.8,-682.58 317.14,-657.74 318.32,-632.93"/>
</g>
<!-- faker_typing&#45;&gt;faker_providers -->
<g id="edge15" class="edge">
<title>faker_typing&#45;&gt;faker_providers</title><style>.edge>path:hover{stroke-width:8}</style>
<path fill="none" stroke="black" d="M267.62,-697.56C262.12,-686.88 254.88,-672.83 248.55,-660.56"/>
<polygon fill="#ce3b3b" stroke="black" points="251.68,-658.99 243.99,-651.7 245.46,-662.2 251.68,-658.99"/>
</g>
<!-- faker_typing&#45;&gt;faker_proxy -->
<g id="edge16" class="edge">
<title>faker_typing&#45;&gt;faker_proxy</title><style>.edge>path:hover{stroke-width:8}</style>
<path fill="none" stroke="black" d="M318.32,-630.93C321.32,-567.89 318.32,-552.04 318.32,-488.93 318.32,-488.93 318.32,-488.93 318.32,-412.05 318.32,-364.59 308.84,-349.38 278.32,-313.04 266.67,-299.17 250.42,-287.81 235.25,-279.22"/>
<polygon fill="#ce3b3b" stroke="black" points="237.29,-276.34 226.83,-274.69 233.98,-282.51 237.29,-276.34"/>
</g>
<!-- faker_utils -->
<g id="node9" class="node">
<title>faker_utils</title><style>.edge>path:hover{stroke-width:8}</style>
<ellipse fill="#db2f2f" stroke="black" cx="34.32" cy="-715.45" rx="34.32" ry="18"/>
<text xml:space="preserve" text-anchor="middle" x="34.32" y="-711.57" font-family="Helvetica,sans-Serif" font-size="10.00" fill="#ffffff">faker.utils</text>
</g>
<!-- faker_utils&#45;&gt;faker_config -->
<g id="edge17" class="edge">
<title>faker_utils&#45;&gt;faker_config</title><style>.edge>path:hover{stroke-width:8}</style>
<path fill="none" stroke="black" d="M34.32,-630.93C43.38,-603.13 71.52,-585.29 96.39,-574.58"/>
<polygon fill="#db2f2f" stroke="black" points="97.4,-577.95 105.38,-570.99 94.79,-571.45 97.4,-577.95"/>
</g>
<!-- faker_utils&#45;&gt;faker_factory -->
<g id="edge18" class="edge">
<title>faker_utils&#45;&gt;faker_factory</title><style>.edge>path:hover{stroke-width:8}</style>
<path fill="none" stroke="black" d="M34.32,-558.93C35.02,-543.34 42.49,-527.89 50.62,-515.49"/>
<polygon fill="#db2f2f" stroke="black" points="53.36,-517.67 56.29,-507.49 47.65,-513.63 53.36,-517.67"/>
</g>
<!-- faker_utils&#45;&gt;faker_providers -->
<g id="edge19" class="edge">
<title>faker_utils&#45;&gt;faker_providers</title><style>.edge>path:hover{stroke-width:8}</style>
<path fill="none" stroke="black" d="M53.37,-700.27C60.62,-695.29 69.11,-689.95 77.32,-685.93 115.91,-667.02 162.92,-652.13 195.39,-643.01"/>
<polygon fill="#db2f2f" stroke="black" points="196.06,-646.45 204.77,-640.43 194.2,-639.71 196.06,-646.45"/>
</g>
<!-- faker_utils&#45;&gt;faker_proxy -->
<g id="edge20" class="edge">
<title>faker_utils&#45;&gt;faker_proxy</title><style>.edge>path:hover{stroke-width:8}</style>
<path fill="none" stroke="black" d="M34.32,-558.93C35.39,-535.24 29.65,-529.6 28.32,-505.93 23.4,-418.69 9.59,-379.5 66.32,-313.04 87.45,-288.29 122.05,-274.87 149.81,-267.73"/>
<polygon fill="#db2f2f" stroke="black" points="150.44,-271.18 159.37,-265.48 148.83,-264.37 150.44,-271.18"/>
<path fill="none" stroke="black" d="M31.27,-697.1C29.01,-680.26 27.39,-654.19 34.32,-632.93"/>
<path fill="none" stroke="black" d="M34.32,-630.93C43.96,-601.35 31.05,-591.87 34.32,-560.93"/>
</g>
<!-- faker_utils_distribution&#45;&gt;faker_providers -->
<g id="edge21" class="edge">
<title>faker_utils_distribution&#45;&gt;faker_providers</title><style>.edge>path:hover{stroke-width:8}</style>
<path fill="none" stroke="black" d="M206.64,-434.27C210.26,-465.25 217.63,-526.29 225.32,-577.93 226.51,-585.9 227.91,-594.52 229.26,-602.45"/>
<polygon fill="blue" stroke="black" points="225.81,-603.02 230.96,-612.28 232.71,-601.83 225.81,-603.02"/>
</g>
<!-- faker_utils_distribution&#45;&gt;faker_proxy -->
<g id="edge22" class="edge">
<title>faker_utils_distribution&#45;&gt;faker_proxy</title><style>.edge>path:hover{stroke-width:8}</style>
<path fill="none" stroke="black" d="M196.98,-391.97C192.35,-376.38 188.13,-354.35 193.32,-335.61"/>
</g>
<!-- faker_utils_loading -->
<g id="node11" class="node">
<title>faker_utils_loading</title><style>.edge>path:hover{stroke-width:8}</style>
<ellipse fill="#c24747" stroke="black" cx="119.32" cy="-715.45" rx="33.06" ry="29.52"/>
<text xml:space="preserve" text-anchor="middle" x="119.32" y="-722.82" font-family="Helvetica,sans-Serif" font-size="10.00" fill="#ffffff">faker.</text>
<text xml:space="preserve" text-anchor="middle" x="119.32" y="-711.57" font-family="Helvetica,sans-Serif" font-size="10.00" fill="#ffffff">utils.</text>
<text xml:space="preserve" text-anchor="middle" x="119.32" y="-700.32" font-family="Helvetica,sans-Serif" font-size="10.00" fill="#ffffff">loading</text>
</g>
<!-- faker_utils_loading&#45;&gt;faker_config -->
<g id="edge23" class="edge">
<title>faker_utils_loading&#45;&gt;faker_config</title><style>.edge>path:hover{stroke-width:8}</style>
<path fill="none" stroke="black" d="M72.32,-630.93C71.5,-609.65 87.86,-592.3 104.62,-580.2"/>
<polygon fill="#c24747" stroke="black" points="106.24,-583.33 112.61,-574.86 102.35,-577.51 106.24,-583.33"/>
</g>
<!-- faker_utils_loading&#45;&gt;faker_factory -->
<g id="edge24" class="edge">
<title>faker_utils_loading&#45;&gt;faker_factory</title><style>.edge>path:hover{stroke-width:8}</style>
<path fill="none" stroke="black" d="M72.32,-630.93C70.81,-591.7 71.18,-546.32 71.67,-517.63"/>
<polygon fill="#c24747" stroke="black" points="75.16,-518 71.86,-507.94 68.16,-517.87 75.16,-518"/>
<path fill="none" stroke="black" d="M98.63,-692.14C86.45,-676.75 73.24,-655.13 72.32,-632.93"/>
</g>
</g>
</svg>
